{"accessors" : [{"bufferView" : 0, "byteOffset" : 0, "componentType" : 5123, "count" : 36, "type" : "SCALAR", "max" : [7], "min" : [0]}, {"bufferView" : 1, "byteOffset" : 0, "componentType" : 5126, "count" : 8, "type" : "VEC3", "max" : [44.07597732543945, 15.864557266235352, 6.572935104370117], "min" : [18.502235412597656, 11.834360122680664, -6.572934150695801], "name" : "POSITION"}, {"bufferView" : 0, "byteOffset" : 72, "componentType" : 5123, "count" : 2304, "type" : "SCALAR", "max" : [383], "min" : [0]}, {"bufferView" : 2, "byteOffset" : 0, "componentType" : 5126, "count" : 384, "type" : "VEC3", "max" : [81.74431610107422, -17.498403549194336, 1.7276710271835327], "min" : [-71.63325500488281, -69.34075164794922, -1.6743320226669312], "name" : "POSITION"}, {"bufferView" : 0, "byteOffset" : 4680, "componentType" : 5123, "count" : 72, "type" : "SCALAR", "max" : [15], "min" : [0]}, {"bufferView" : 3, "byteOffset" : 0, "componentType" : 5126, "count" : 16, "type" : "VEC3", "max" : [24.000905990600586, -28.820125579833984, 16.549625396728516], "min" : [-1.057610034942627, -59.63135528564453, -16.879852294921875], "name" : "POSITION"}, {"bufferView" : 0, "byteOffset" : 4824, "componentType" : 5123, "count" : 768, "type" : "SCALAR", "max" : [131], "min" : [0]}, {"bufferView" : 4, "byteOffset" : 0, "componentType" : 5126, "count" : 132, "type" : "VEC3", "max" : [21.112245559692383, -29.121749877929688, 8.74802303314209], "min" : [1.6425490379333496, -59.09254837036133, -8.982033729553223], "name" : "POSITION"}, {"bufferView" : 0, "byteOffset" : 6360, "componentType" : 5123, "count" : 2304, "type" : "SCALAR", "max" : [383], "min" : [0]}, {"bufferView" : 5, "byteOffset" : 0, "componentType" : 5126, "count" : 384, "type" : "VEC3", "max" : [84.62431335449219, -14.618232727050781, 1.8566709756851196], "min" : [-74.51325225830078, -72.22084045410156, -1.9233319759368896], "name" : "POSITION"}, {"bufferView" : 0, "byteOffset" : 10968, "componentType" : 5123, "count" : 1536, "type" : "SCALAR", "max" : [263], "min" : [0]}, {"bufferView" : 6, "byteOffset" : 0, "componentType" : 5126, "count" : 264, "type" : "VEC3", "max" : [-25.218299865722656, 22.03318214416504, 27.29598617553711], "min" : [-37.95956802368164, 6.073975086212158, -27.255393981933594], "name" : "POSITION"}, {"bufferView" : 0, "byteOffset" : 14040, "componentType" : 5123, "count" : 1920, "type" : "SCALAR", "max" : [329], "min" : [0]}, {"bufferView" : 7, "byteOffset" : 0, "componentType" : 5126, "count" : 330, "type" : "VEC3", "max" : [57.9608154296875, 21.713497161865234, 16.000001907348633], "min" : [-47.64090347290039, -46.427894592285156, -16.000001907348633], "name" : "POSITION"}, {"bufferView" : 0, "byteOffset" : 17880, "componentType" : 5123, "count" : 4608, "type" : "SCALAR", "max" : [791], "min" : [0]}, {"bufferView" : 8, "byteOffset" : 0, "componentType" : 5126, "count" : 792, "type" : "VEC3", "max" : [57.91609573364258, 6.862369060516357, 8.144410133361816], "min" : [-47.05023193359375, -46.47929763793945, -8.46692180633545], "name" : "POSITION"}], "asset" : {"generator" : "Aspose.3D 24.9.1", "version" : "2.0"}, "buffers" : [{"uri" : "data:application/octet-stream;base64,", "byteLength" : 54852}], "bufferViews" : [{"buffer" : 0, "byteOffset" : 0, "byteLength" : 27096, "target" : 34963}, {"buffer" : 0, "byteOffset" : 27100, "byteLength" : 96, "byteStride" : 12, "target" : 34962}, {"buffer" : 0, "byteOffset" : 27200, "byteLength" : 4608, "byteStride" : 12, "target" : 34962}, {"buffer" : 0, "byteOffset" : 31812, "byteLength" : 192, "byteStride" : 12, "target" : 34962}, {"buffer" : 0, "byteOffset" : 32008, "byteLength" : 1584, "byteStride" : 12, "target" : 34962}, {"buffer" : 0, "byteOffset" : 33596, "byteLength" : 4608, "byteStride" : 12, "target" : 34962}, {"buffer" : 0, "byteOffset" : 38208, "byteLength" : 3168, "byteStride" : 12, "target" : 34962}, {"buffer" : 0, "byteOffset" : 41380, "byteLength" : 3960, "byteStride" : 12, "target" : 34962}, {"buffer" : 0, "byteOffset" : 45344, "byteLength" : 9504, "byteStride" : 12, "target" : 34962}], "meshes" : [{"primitives" : [{"attributes" : {"POSITION" : 1}, "indices" : 0, "mode" : 4}], "name" : ""}, {"primitives" : [{"attributes" : {"POSITION" : 3}, "indices" : 2, "mode" : 4}], "name" : ""}, {"primitives" : [{"attributes" : {"POSITION" : 5}, "indices" : 4, "mode" : 4}], "name" : ""}, {"primitives" : [{"attributes" : {"POSITION" : 7}, "indices" : 6, "mode" : 4}], "name" : ""}, {"primitives" : [{"attributes" : {"POSITION" : 9}, "indices" : 8, "mode" : 4}], "name" : ""}, {"primitives" : [{"attributes" : {"POSITION" : 11}, "indices" : 10, "mode" : 4}], "name" : ""}, {"primitives" : [{"attributes" : {"POSITION" : 13}, "indices" : 12, "mode" : 4}], "name" : ""}, {"primitives" : [{"attributes" : {"POSITION" : 15}, "indices" : 14, "mode" : 4}], "name" : ""}], "nodes" : [{"mesh" : 0, "name" : "Cube.001_Cube.002"}, {"mesh" : 1, "name" : "Circle.001"}, {"mesh" : 2, "name" : "Cube_Cube.001"}, {"mesh" : 3, "name" : "Cylinder.003"}, {"mesh" : 4, "name" : "Circle"}, {"mesh" : 5, "name" : "Cylinder.002"}, {"mesh" : 6, "name" : "Cylinder.001"}, {"mesh" : 7, "name" : "Cylinder"}], "scene" : 0, "scenes" : [{"nodes" : [0, 1, 2, 3, 4, 5, 6, 7]}]}