{"accessors" : [{"bufferView" : 0, "byteOffset" : 0, "componentType" : 5123, "count" : 72, "type" : "SCALAR", "max" : [71], "min" : [0]}, {"bufferView" : 1, "byteOffset" : 0, "componentType" : 5126, "count" : 72, "type" : "VEC3", "max" : [2.1549999713897705, 0.8799999952316284, 0.4300000071525574], "min" : [-2.1449999809265137, -0.8999999761581421, -0.8899999856948853], "name" : "POSITION"}, {"bufferView" : 1, "byteOffset" : 12, "componentType" : 5126, "count" : 72, "type" : "VEC3", "max" : [1.0000044107437134, 1.0000044107437134, 1.0000044107437134], "min" : [-1.0000044107437134, -1.0000044107437134, -1.0000044107437134], "name" : "NORMAL"}, {"bufferView" : 0, "byteOffset" : 144, "componentType" : 5123, "count" : 72, "type" : "SCALAR", "max" : [71], "min" : [0]}, {"bufferView" : 2, "byteOffset" : 0, "componentType" : 5126, "count" : 72, "type" : "VEC3", "max" : [2.365000009536743, 0.9677500128746033, 0.6774500012397766], "min" : [-2.3450000286102295, 0.8677499890327454, -0.9125499725341797], "name" : "POSITION"}, {"bufferView" : 2, "byteOffset" : 12, "componentType" : 5126, "count" : 72, "type" : "VEC3", "max" : [1.0000044107437134, 1.0000044107437134, 1.0000044107437134], "min" : [-1.0000044107437134, -1.0000044107437134, -1.0000044107437134], "name" : "NORMAL"}, {"bufferView" : 0, "byteOffset" : 288, "componentType" : 5123, "count" : 48, "type" : "SCALAR", "max" : [17], "min" : [0]}, {"bufferView" : 3, "byteOffset" : 0, "componentType" : 5126, "count" : 18, "type" : "VEC3", "max" : [2.255000114440918, 0.9300000071525574, 0.574999988079071], "min" : [2.0850000381469727, -1.1399999856948853, 0.4050000011920929], "name" : "POSITION"}, {"bufferView" : 3, "byteOffset" : 12, "componentType" : 5126, "count" : 18, "type" : "VEC3", "max" : [1.0000044107437134, 1.0000044107437134, 1.0000044107437134], "min" : [-1.0000044107437134, -1.0000044107437134, -1.0000044107437134], "name" : "NORMAL"}, {"bufferView" : 0, "byteOffset" : 384, "componentType" : 5123, "count" : 48, "type" : "SCALAR", "max" : [17], "min" : [0]}, {"bufferView" : 4, "byteOffset" : 0, "componentType" : 5126, "count" : 18, "type" : "VEC3", "max" : [-2.0950000286102295, 0.9300000071525574, 0.574999988079071], "min" : [-2.265000104904175, -1.1399999856948853, 0.4050000011920929], "name" : "POSITION"}, {"bufferView" : 4, "byteOffset" : 12, "componentType" : 5126, "count" : 18, "type" : "VEC3", "max" : [1.0000044107437134, 1.0000044107437134, 1.0000044107437134], "min" : [-1.0000044107437134, -1.0000044107437134, -1.0000044107437134], "name" : "NORMAL"}, {"bufferView" : 0, "byteOffset" : 480, "componentType" : 5123, "count" : 48, "type" : "SCALAR", "max" : [17], "min" : [0]}, {"bufferView" : 5, "byteOffset" : 0, "componentType" : 5126, "count" : 18, "type" : "VEC3", "max" : [-2.0950000286102295, 0.9300000071525574, 0.574999988079071], "min" : [-2.265000104904175, -1.1399999856948853, 0.4050000011920929], "name" : "POSITION"}, {"bufferView" : 5, "byteOffset" : 12, "componentType" : 5126, "count" : 18, "type" : "VEC3", "max" : [1.0000044107437134, 1.0000044107437134, 1.0000044107437134], "min" : [-1.0000044107437134, -1.0000044107437134, -1.0000044107437134], "name" : "NORMAL"}, {"bufferView" : 0, "byteOffset" : 576, "componentType" : 5123, "count" : 48, "type" : "SCALAR", "max" : [17], "min" : [0]}, {"bufferView" : 6, "byteOffset" : 0, "componentType" : 5126, "count" : 18, "type" : "VEC3", "max" : [-1.965000033378601, -0.8757399916648865, -0.6998999714851379], "min" : [-2.134999990463257, -1.1399999856948853, -0.8698999881744385], "name" : "POSITION"}, {"bufferView" : 6, "byteOffset" : 12, "componentType" : 5126, "count" : 18, "type" : "VEC3", "max" : [1.0000044107437134, 1.0000044107437134, 1.0000044107437134], "min" : [-1.0000044107437134, -1.0000044107437134, -1.0000044107437134], "name" : "NORMAL"}, {"bufferView" : 0, "byteOffset" : 672, "componentType" : 5123, "count" : 48, "type" : "SCALAR", "max" : [17], "min" : [0]}, {"bufferView" : 7, "byteOffset" : 0, "componentType" : 5126, "count" : 18, "type" : "VEC3", "max" : [2.134999990463257, -0.8757399916648865, -0.6998999714851379], "min" : [1.965000033378601, -1.1399999856948853, -0.8698999881744385], "name" : "POSITION"}, {"bufferView" : 7, "byteOffset" : 12, "componentType" : 5126, "count" : 18, "type" : "VEC3", "max" : [1.0000044107437134, 1.0000044107437134, 1.0000044107437134], "min" : [-1.0000044107437134, -1.0000044107437134, -1.0000044107437134], "name" : "NORMAL"}, {"bufferView" : 0, "byteOffset" : 768, "componentType" : 5123, "count" : 96, "type" : "SCALAR", "max" : [95], "min" : [0]}, {"bufferView" : 8, "byteOffset" : 0, "componentType" : 5126, "count" : 96, "type" : "VEC3", "max" : [-1.065000057220459, 0.8199999928474426, 0.5341399908065796], "min" : [-2.055000066757202, -0.8199999928474426, 0.4350000023841858], "name" : "POSITION"}, {"bufferView" : 8, "byteOffset" : 12, "componentType" : 5126, "count" : 96, "type" : "VEC3", "max" : [1.0000044107437134, 1.0000044107437134, 1.0000044107437134], "min" : [-1.0000044107437134, -1.0000044107437134, -1.0000044107437134], "name" : "NORMAL"}, {"bufferView" : 0, "byteOffset" : 960, "componentType" : 5123, "count" : 96, "type" : "SCALAR", "max" : [95], "min" : [0]}, {"bufferView" : 9, "byteOffset" : 0, "componentType" : 5126, "count" : 96, "type" : "VEC3", "max" : [-0.02500000037252903, 0.8199999928474426, 0.5341399908065796], "min" : [-1.0149999856948853, -0.8199999928474426, 0.4350000023841858], "name" : "POSITION"}, {"bufferView" : 9, "byteOffset" : 12, "componentType" : 5126, "count" : 96, "type" : "VEC3", "max" : [1.0000044107437134, 1.0000044107437134, 1.0000044107437134], "min" : [-1.0000044107437134, -1.0000044107437134, -1.0000044107437134], "name" : "NORMAL"}, {"bufferView" : 0, "byteOffset" : 1152, "componentType" : 5123, "count" : 96, "type" : "SCALAR", "max" : [95], "min" : [0]}, {"bufferView" : 10, "byteOffset" : 0, "componentType" : 5126, "count" : 96, "type" : "VEC3", "max" : [2.055000066757202, 0.8199999928474426, 0.5341399908065796], "min" : [1.065000057220459, -0.8199999928474426, 0.4350000023841858], "name" : "POSITION"}, {"bufferView" : 10, "byteOffset" : 12, "componentType" : 5126, "count" : 96, "type" : "VEC3", "max" : [1.0000044107437134, 1.0000044107437134, 1.0000044107437134], "min" : [-1.0000044107437134, -1.0000044107437134, -1.0000044107437134], "name" : "NORMAL"}, {"bufferView" : 0, "byteOffset" : 1344, "componentType" : 5123, "count" : 96, "type" : "SCALAR", "max" : [95], "min" : [0]}, {"bufferView" : 11, "byteOffset" : 0, "componentType" : 5126, "count" : 96, "type" : "VEC3", "max" : [1.024999976158142, 0.8199999928474426, 0.5341399908065796], "min" : [0.03500000014901161, 0.47999998927116394, 0.4350000023841858], "name" : "POSITION"}, {"bufferView" : 11, "byteOffset" : 12, "componentType" : 5126, "count" : 96, "type" : "VEC3", "max" : [1.0000044107437134, 1.0000044107437134, 1.0000044107437134], "min" : [-1.0000044107437134, -1.0000044107437134, -1.0000044107437134], "name" : "NORMAL"}, {"bufferView" : 0, "byteOffset" : 1536, "componentType" : 5123, "count" : 96, "type" : "SCALAR", "max" : [95], "min" : [0]}, {"bufferView" : 12, "byteOffset" : 0, "componentType" : 5126, "count" : 96, "type" : "VEC3", "max" : [1.024999976158142, 0.4000000059604645, 0.5341399908065796], "min" : [0.03500000014901161, 0.05999999865889549, 0.4350000023841858], "name" : "POSITION"}, {"bufferView" : 12, "byteOffset" : 12, "componentType" : 5126, "count" : 96, "type" : "VEC3", "max" : [1.0000044107437134, 1.0000044107437134, 1.0000044107437134], "min" : [-1.0000044107437134, -1.0000044107437134, -1.0000044107437134], "name" : "NORMAL"}, {"bufferView" : 0, "byteOffset" : 1728, "componentType" : 5123, "count" : 96, "type" : "SCALAR", "max" : [95], "min" : [0]}, {"bufferView" : 13, "byteOffset" : 0, "componentType" : 5126, "count" : 96, "type" : "VEC3", "max" : [1.024999976158142, -0.03999999910593033, 0.5341399908065796], "min" : [0.03500000014901161, -0.3799999952316284, 0.4350000023841858], "name" : "POSITION"}, {"bufferView" : 13, "byteOffset" : 12, "componentType" : 5126, "count" : 96, "type" : "VEC3", "max" : [1.0000044107437134, 1.0000044107437134, 1.0000044107437134], "min" : [-1.0000044107437134, -1.0000044107437134, -1.0000044107437134], "name" : "NORMAL"}, {"bufferView" : 0, "byteOffset" : 1920, "componentType" : 5123, "count" : 96, "type" : "SCALAR", "max" : [95], "min" : [0]}, {"bufferView" : 14, "byteOffset" : 0, "componentType" : 5126, "count" : 96, "type" : "VEC3", "max" : [1.024999976158142, -0.46000000834465027, 0.5341399908065796], "min" : [0.03500000014901161, -0.800000011920929, 0.4350000023841858], "name" : "POSITION"}, {"bufferView" : 14, "byteOffset" : 12, "componentType" : 5126, "count" : 96, "type" : "VEC3", "max" : [1.0000044107437134, 1.0000044107437134, 1.0000044107437134], "min" : [-1.0000044107437134, -1.0000044107437134, -1.0000044107437134], "name" : "NORMAL"}, {"bufferView" : 0, "byteOffset" : 2112, "componentType" : 5123, "count" : 120, "type" : "SCALAR", "max" : [119], "min" : [0]}, {"bufferView" : 15, "byteOffset" : 0, "componentType" : 5126, "count" : 120, "type" : "VEC3", "max" : [-1.2262500524520874, 0.5209599733352661, 0.6352099776268005], "min" : [-1.316249966621399, 0.004920000210404396, 0.5300499796867371], "name" : "POSITION"}, {"bufferView" : 15, "byteOffset" : 12, "componentType" : 5126, "count" : 120, "type" : "VEC3", "max" : [0.630502462387085, 0.608451783657074, 0.7761929631233215], "min" : [-0.630502462387085, -0.680632472038269, -0.9999714493751526], "name" : "NORMAL"}, {"bufferView" : 0, "byteOffset" : 2352, "componentType" : 5123, "count" : 120, "type" : "SCALAR", "max" : [119], "min" : [0]}, {"bufferView" : 16, "byteOffset" : 0, "componentType" : 5126, "count" : 120, "type" : "VEC3", "max" : [-0.7762500047683716, 0.5209599733352661, 0.6352099776268005], "min" : [-0.8662499785423279, 0.004920000210404396, 0.5300499796867371], "name" : "POSITION"}, {"bufferView" : 16, "byteOffset" : 12, "componentType" : 5126, "count" : 120, "type" : "VEC3", "max" : [0.630502462387085, 0.608451783657074, 0.7761929631233215], "min" : [-0.630502462387085, -0.680632472038269, -0.9999714493751526], "name" : "NORMAL"}, {"bufferView" : 0, "byteOffset" : 2592, "componentType" : 5123, "count" : 120, "type" : "SCALAR", "max" : [119], "min" : [0]}, {"bufferView" : 17, "byteOffset" : 0, "componentType" : 5126, "count" : 120, "type" : "VEC3", "max" : [1.3037500381469727, 0.5209599733352661, 0.6352099776268005], "min" : [1.2137500047683716, 0.004920000210404396, 0.5300499796867371], "name" : "POSITION"}, {"bufferView" : 17, "byteOffset" : 12, "componentType" : 5126, "count" : 120, "type" : "VEC3", "max" : [0.630502462387085, 0.608451783657074, 0.7761929631233215], "min" : [-0.630502462387085, -0.680632472038269, -0.9999714493751526], "name" : "NORMAL"}, {"bufferView" : 0, "byteOffset" : 2832, "componentType" : 5123, "count" : 120, "type" : "SCALAR", "max" : [119], "min" : [0]}, {"bufferView" : 18, "byteOffset" : 0, "componentType" : 5126, "count" : 120, "type" : "VEC3", "max" : [0.7884899973869324, 0.27928999066352844, 0.6352099776268005], "min" : [0.272460013628006, 0.18929000198841095, 0.5300499796867371], "name" : "POSITION"}, {"bufferView" : 18, "byteOffset" : 12, "componentType" : 5126, "count" : 120, "type" : "VEC3", "max" : [0.680632472038269, 0.630502462387085, 0.7761929631233215], "min" : [-0.608451783657074, -0.630502462387085, -0.9999714493751526], "name" : "NORMAL"}, {"bufferView" : 0, "byteOffset" : 3072, "componentType" : 5123, "count" : 120, "type" : "SCALAR", "max" : [119], "min" : [0]}, {"bufferView" : 19, "byteOffset" : 0, "componentType" : 5126, "count" : 120, "type" : "VEC3", "max" : [0.7749800086021423, 0.6914899945259094, 0.6352099776268005], "min" : [0.2589400112628937, 0.6014900207519531, 0.5300499796867371], "name" : "POSITION"}, {"bufferView" : 19, "byteOffset" : 12, "componentType" : 5126, "count" : 120, "type" : "VEC3", "max" : [0.680632472038269, 0.630502462387085, 0.7761929631233215], "min" : [-0.608451783657074, -0.630502462387085, -0.9999714493751526], "name" : "NORMAL"}, {"bufferView" : 0, "byteOffset" : 3312, "componentType" : 5123, "count" : 120, "type" : "SCALAR", "max" : [119], "min" : [0]}, {"bufferView" : 20, "byteOffset" : 0, "componentType" : 5126, "count" : 120, "type" : "VEC3", "max" : [0.7749800086021423, -0.15317000448703766, 0.6352099776268005], "min" : [0.2589400112628937, -0.24316999316215515, 0.5300499796867371], "name" : "POSITION"}, {"bufferView" : 20, "byteOffset" : 12, "componentType" : 5126, "count" : 120, "type" : "VEC3", "max" : [0.680632472038269, 0.630502462387085, 0.7761929631233215], "min" : [-0.608451783657074, -0.630502462387085, -0.9999714493751526], "name" : "NORMAL"}, {"bufferView" : 0, "byteOffset" : 3552, "componentType" : 5123, "count" : 120, "type" : "SCALAR", "max" : [119], "min" : [0]}, {"bufferView" : 21, "byteOffset" : 0, "componentType" : 5126, "count" : 120, "type" : "VEC3", "max" : [0.7749800086021423, -0.585640013217926, 0.6352099776268005], "min" : [0.2589400112628937, -0.6756399869918823, 0.5300499796867371], "name" : "POSITION"}, {"bufferView" : 21, "byteOffset" : 12, "componentType" : 5126, "count" : 120, "type" : "VEC3", "max" : [0.680632472038269, 0.630502462387085, 0.7761929631233215], "min" : [-0.608451783657074, -0.630502462387085, -0.9999714493751526], "name" : "NORMAL"}], "asset" : {"generator" : "Aspose.3D 24.9.1", "version" : "2.0"}, "buffers" : [{"uri" : "data:application/octet-stream;base64,", "byteLength" : 45784}], "bufferViews" : [{"buffer" : 0, "byteOffset" : 0, "byteLength" : 3792, "target" : 34963}, {"buffer" : 0, "byteOffset" : 3796, "byteLength" : 1728, "byteStride" : 24, "target" : 34962}, {"buffer" : 0, "byteOffset" : 5528, "byteLength" : 1728, "byteStride" : 24, "target" : 34962}, {"buffer" : 0, "byteOffset" : 7260, "byteLength" : 432, "byteStride" : 24, "target" : 34962}, {"buffer" : 0, "byteOffset" : 7696, "byteLength" : 432, "byteStride" : 24, "target" : 34962}, {"buffer" : 0, "byteOffset" : 8132, "byteLength" : 432, "byteStride" : 24, "target" : 34962}, {"buffer" : 0, "byteOffset" : 8568, "byteLength" : 432, "byteStride" : 24, "target" : 34962}, {"buffer" : 0, "byteOffset" : 9004, "byteLength" : 432, "byteStride" : 24, "target" : 34962}, {"buffer" : 0, "byteOffset" : 9440, "byteLength" : 2304, "byteStride" : 24, "target" : 34962}, {"buffer" : 0, "byteOffset" : 11748, "byteLength" : 2304, "byteStride" : 24, "target" : 34962}, {"buffer" : 0, "byteOffset" : 14056, "byteLength" : 2304, "byteStride" : 24, "target" : 34962}, {"buffer" : 0, "byteOffset" : 16364, "byteLength" : 2304, "byteStride" : 24, "target" : 34962}, {"buffer" : 0, "byteOffset" : 18672, "byteLength" : 2304, "byteStride" : 24, "target" : 34962}, {"buffer" : 0, "byteOffset" : 20980, "byteLength" : 2304, "byteStride" : 24, "target" : 34962}, {"buffer" : 0, "byteOffset" : 23288, "byteLength" : 2304, "byteStride" : 24, "target" : 34962}, {"buffer" : 0, "byteOffset" : 25596, "byteLength" : 2880, "byteStride" : 24, "target" : 34962}, {"buffer" : 0, "byteOffset" : 28480, "byteLength" : 2880, "byteStride" : 24, "target" : 34962}, {"buffer" : 0, "byteOffset" : 31364, "byteLength" : 2880, "byteStride" : 24, "target" : 34962}, {"buffer" : 0, "byteOffset" : 34248, "byteLength" : 2880, "byteStride" : 24, "target" : 34962}, {"buffer" : 0, "byteOffset" : 37132, "byteLength" : 2880, "byteStride" : 24, "target" : 34962}, {"buffer" : 0, "byteOffset" : 40016, "byteLength" : 2880, "byteStride" : 24, "target" : 34962}, {"buffer" : 0, "byteOffset" : 42900, "byteLength" : 2880, "byteStride" : 24, "target" : 34962}], "meshes" : [{"primitives" : [{"attributes" : {"POSITION" : 1, "NORMAL" : 2}, "indices" : 0, "mode" : 4}], "name" : ""}, {"primitives" : [{"attributes" : {"POSITION" : 4, "NORMAL" : 5}, "indices" : 3, "mode" : 4}], "name" : ""}, {"primitives" : [{"attributes" : {"POSITION" : 7, "NORMAL" : 8}, "indices" : 6, "mode" : 4}], "name" : ""}, {"primitives" : [{"attributes" : {"POSITION" : 10, "NORMAL" : 11}, "indices" : 9, "mode" : 4}], "name" : ""}, {"primitives" : [{"attributes" : {"POSITION" : 13, "NORMAL" : 14}, "indices" : 12, "mode" : 4}], "name" : ""}, {"primitives" : [{"attributes" : {"POSITION" : 16, "NORMAL" : 17}, "indices" : 15, "mode" : 4}], "name" : ""}, {"primitives" : [{"attributes" : {"POSITION" : 19, "NORMAL" : 20}, "indices" : 18, "mode" : 4}], "name" : ""}, {"primitives" : [{"attributes" : {"POSITION" : 22, "NORMAL" : 23}, "indices" : 21, "mode" : 4}], "name" : ""}, {"primitives" : [{"attributes" : {"POSITION" : 25, "NORMAL" : 26}, "indices" : 24, "mode" : 4}], "name" : ""}, {"primitives" : [{"attributes" : {"POSITION" : 28, "NORMAL" : 29}, "indices" : 27, "mode" : 4}], "name" : ""}, {"primitives" : [{"attributes" : {"POSITION" : 31, "NORMAL" : 32}, "indices" : 30, "mode" : 4}], "name" : ""}, {"primitives" : [{"attributes" : {"POSITION" : 34, "NORMAL" : 35}, "indices" : 33, "mode" : 4}], "name" : ""}, {"primitives" : [{"attributes" : {"POSITION" : 37, "NORMAL" : 38}, "indices" : 36, "mode" : 4}], "name" : ""}, {"primitives" : [{"attributes" : {"POSITION" : 40, "NORMAL" : 41}, "indices" : 39, "mode" : 4}], "name" : ""}, {"primitives" : [{"attributes" : {"POSITION" : 43, "NORMAL" : 44}, "indices" : 42, "mode" : 4}], "name" : ""}, {"primitives" : [{"attributes" : {"POSITION" : 46, "NORMAL" : 47}, "indices" : 45, "mode" : 4}], "name" : ""}, {"primitives" : [{"attributes" : {"POSITION" : 49, "NORMAL" : 50}, "indices" : 48, "mode" : 4}], "name" : ""}, {"primitives" : [{"attributes" : {"POSITION" : 52, "NORMAL" : 53}, "indices" : 51, "mode" : 4}], "name" : ""}, {"primitives" : [{"attributes" : {"POSITION" : 55, "NORMAL" : 56}, "indices" : 54, "mode" : 4}], "name" : ""}, {"primitives" : [{"attributes" : {"POSITION" : 58, "NORMAL" : 59}, "indices" : 57, "mode" : 4}], "name" : ""}, {"primitives" : [{"attributes" : {"POSITION" : 61, "NORMAL" : 62}, "indices" : 60, "mode" : 4}], "name" : ""}], "nodes" : [{"mesh" : 0, "name" : "Cube_1"}, {"mesh" : 1, "name" : "Cube_2"}, {"mesh" : 2, "name" : "Cylinder_1"}, {"mesh" : 3, "name" : "Cylinder_1_1"}, {"mesh" : 4, "name" : "Cylinder_1_2"}, {"mesh" : 5, "name" : "Cylinder_1_3"}, {"mesh" : 6, "name" : "Cylinder_1_4"}, {"mesh" : 7, "name" : "Cube_3"}, {"mesh" : 8, "name" : "Cube_3_1"}, {"mesh" : 9, "name" : "Cube_3_2"}, {"mesh" : 10, "name" : "Cube_3_3"}, {"mesh" : 11, "name" : "Cube_3_4"}, {"mesh" : 12, "name" : "Cube_3_5"}, {"mesh" : 13, "name" : "Cube_3_6"}, {"mesh" : 14, "name" : "Cylinder_2"}, {"mesh" : 15, "name" : "Cylinder_2_1"}, {"mesh" : 16, "name" : "Cylinder_2_2"}, {"mesh" : 17, "name" : "Cylinder_2_3"}, {"mesh" : 18, "name" : "Cylinder_2_4"}, {"mesh" : 19, "name" : "Cylinder_2_5"}, {"mesh" : 20, "name" : "Cylinder_2_6"}], "scene" : 0, "scenes" : [{"nodes" : [0, 1, 2, 3, 4, 5, 6, 7, 8, 9, 10, 11, 12, 13, 14, 15, 16, 17, 18, 19, 20]}]}