{"accessors" : [{"bufferView" : 0, "byteOffset" : 0, "componentType" : 5123, "count" : 14784, "type" : "SCALAR", "max" : [2465], "min" : [0]}, {"bufferView" : 1, "byteOffset" : 0, "componentType" : 5126, "count" : 2466, "type" : "VEC3", "max" : [11.95829963684082, -0.040130000561475754, 23.676549911499023], "min" : [9.212479591369629, -0.5771399736404419, 21.4949893951416], "name" : "POSITION"}, {"bufferView" : 0, "byteOffset" : 29568, "componentType" : 5123, "count" : 18432, "type" : "SCALAR", "max" : [3073], "min" : [0]}, {"bufferView" : 2, "byteOffset" : 0, "componentType" : 5126, "count" : 3074, "type" : "VEC3", "max" : [11.593600273132324, 0.3816399872303009, 23.716890335083008], "min" : [9.552020072937012, -0.12981000542640686, 21.661090850830078], "name" : "POSITION"}, {"bufferView" : 0, "byteOffset" : 66432, "componentType" : 5123, "count" : 11520, "type" : "SCALAR", "max" : [1921], "min" : [0]}, {"bufferView" : 3, "byteOffset" : 0, "componentType" : 5126, "count" : 1922, "type" : "VEC3", "max" : [11.840660095214844, 1.5504100322723389, 22.103290557861328], "min" : [9.174869537353516, 0.3009899854660034, 21.277189254760742], "name" : "POSITION"}, {"bufferView" : 0, "byteOffset" : 89472, "componentType" : 5123, "count" : 9216, "type" : "SCALAR", "max" : [1537], "min" : [0]}, {"bufferView" : 4, "byteOffset" : 0, "componentType" : 5126, "count" : 1538, "type" : "VEC3", "max" : [11.850279808044434, 1.4876699447631836, 21.55021095275879], "min" : [9.165470123291016, -0.11726000159978867, 21.214670181274414], "name" : "POSITION"}, {"bufferView" : 0, "byteOffset" : 107904, "componentType" : 5123, "count" : 36, "type" : "SCALAR", "max" : [7], "min" : [0]}, {"bufferView" : 5, "byteOffset" : 0, "componentType" : 5126, "count" : 8, "type" : "VEC3", "max" : [9.536789894104004, -0.5611799955368042, 21.958709716796875], "min" : [9.207810401916504, -0.9084299802780151, 21.629730224609375], "name" : "POSITION"}, {"bufferView" : 5, "byteOffset" : 12, "componentType" : 5126, "count" : 8, "type" : "VEC2", "max" : [1, 1], "min" : [0, 0], "name" : "TEXCOORD_0"}, {"bufferView" : 0, "byteOffset" : 107976, "componentType" : 5123, "count" : 36, "type" : "SCALAR", "max" : [7], "min" : [0]}, {"bufferView" : 6, "byteOffset" : 0, "componentType" : 5126, "count" : 8, "type" : "VEC3", "max" : [9.576919555664062, -0.5611799955368042, 23.58115005493164], "min" : [9.247949600219727, -0.9084299802780151, 23.25217056274414], "name" : "POSITION"}, {"bufferView" : 6, "byteOffset" : 12, "componentType" : 5126, "count" : 8, "type" : "VEC2", "max" : [1, 1], "min" : [0, 0], "name" : "TEXCOORD_0"}, {"bufferView" : 0, "byteOffset" : 108048, "componentType" : 5123, "count" : 36, "type" : "SCALAR", "max" : [7], "min" : [0]}, {"bufferView" : 7, "byteOffset" : 0, "componentType" : 5126, "count" : 8, "type" : "VEC3", "max" : [11.958189964294434, -0.5611799955368042, 23.58115005493164], "min" : [11.629220008850098, -0.9084299802780151, 23.25217056274414], "name" : "POSITION"}, {"bufferView" : 7, "byteOffset" : 12, "componentType" : 5126, "count" : 8, "type" : "VEC2", "max" : [1, 1], "min" : [0, 0], "name" : "TEXCOORD_0"}, {"bufferView" : 0, "byteOffset" : 108120, "componentType" : 5123, "count" : 36, "type" : "SCALAR", "max" : [7], "min" : [0]}, {"bufferView" : 8, "byteOffset" : 0, "componentType" : 5126, "count" : 8, "type" : "VEC3", "max" : [11.955419540405273, -0.5611799955368042, 21.963150024414062], "min" : [11.626449584960938, -0.9084299802780151, 21.634180068969727], "name" : "POSITION"}, {"bufferView" : 8, "byteOffset" : 12, "componentType" : 5126, "count" : 8, "type" : "VEC2", "max" : [1, 1], "min" : [0, 0], "name" : "TEXCOORD_0"}, {"bufferView" : 0, "byteOffset" : 108192, "componentType" : 5123, "count" : 15360, "type" : "SCALAR", "max" : [2561], "min" : [0]}, {"bufferView" : 9, "byteOffset" : 0, "componentType" : 5126, "count" : 2562, "type" : "VEC3", "max" : [9.724010467529297, 0.8037199974060059, 23.74110984802246], "min" : [8.924650192260742, -0.5724800229072571, 21.483909606933594], "name" : "POSITION"}, {"bufferView" : 0, "byteOffset" : 138912, "componentType" : 5123, "count" : 13824, "type" : "SCALAR", "max" : [2305], "min" : [0]}, {"bufferView" : 10, "byteOffset" : 0, "componentType" : 5126, "count" : 2306, "type" : "VEC3", "max" : [11.335929870605469, 1.4560799598693848, 22.543060302734375], "min" : [10.134790420532227, 0.3538599908351898, 21.931869506835938], "name" : "POSITION"}, {"bufferView" : 10, "byteOffset" : 12, "componentType" : 5126, "count" : 2306, "type" : "VEC2", "max" : [1.000290036201477, 1.0007599592208862], "min" : [-0.0002899999963119626, 0.00028002262115478516], "name" : "TEXCOORD_0"}, {"bufferView" : 0, "byteOffset" : 166560, "componentType" : 5123, "count" : 15360, "type" : "SCALAR", "max" : [2561], "min" : [0]}, {"bufferView" : 11, "byteOffset" : 0, "componentType" : 5126, "count" : 2562, "type" : "VEC3", "max" : [12.242400169372559, 0.8037199974060059, 23.74110984802246], "min" : [11.443039894104004, -0.5724800229072571, 21.483909606933594], "name" : "POSITION"}], "asset" : {"generator" : "Aspose.3D 24.9.1", "version" : "2.0"}, "buffers" : [{"uri" : "data:application/octet-stream;base64,", "byteLength" : 413576}], "bufferViews" : [{"buffer" : 0, "byteOffset" : 0, "byteLength" : 197280, "target" : 34963}, {"buffer" : 0, "byteOffset" : 197284, "byteLength" : 29592, "byteStride" : 12, "target" : 34962}, {"buffer" : 0, "byteOffset" : 226880, "byteLength" : 36888, "byteStride" : 12, "target" : 34962}, {"buffer" : 0, "byteOffset" : 263772, "byteLength" : 23064, "byteStride" : 12, "target" : 34962}, {"buffer" : 0, "byteOffset" : 286840, "byteLength" : 18456, "byteStride" : 12, "target" : 34962}, {"buffer" : 0, "byteOffset" : 305300, "byteLength" : 160, "byteStride" : 20, "target" : 34962}, {"buffer" : 0, "byteOffset" : 305464, "byteLength" : 160, "byteStride" : 20, "target" : 34962}, {"buffer" : 0, "byteOffset" : 305628, "byteLength" : 160, "byteStride" : 20, "target" : 34962}, {"buffer" : 0, "byteOffset" : 305792, "byteLength" : 160, "byteStride" : 20, "target" : 34962}, {"buffer" : 0, "byteOffset" : 305956, "byteLength" : 30744, "byteStride" : 12, "target" : 34962}, {"buffer" : 0, "byteOffset" : 336704, "byteLength" : 46120, "byteStride" : 20, "target" : 34962}, {"buffer" : 0, "byteOffset" : 382828, "byteLength" : 30744, "byteStride" : 12, "target" : 34962}], "meshes" : [{"primitives" : [{"attributes" : {"POSITION" : 1}, "indices" : 0, "mode" : 4}], "name" : ""}, {"primitives" : [{"attributes" : {"POSITION" : 3}, "indices" : 2, "mode" : 4}], "name" : ""}, {"primitives" : [{"attributes" : {"POSITION" : 5}, "indices" : 4, "mode" : 4}], "name" : ""}, {"primitives" : [{"attributes" : {"POSITION" : 7}, "indices" : 6, "mode" : 4}], "name" : ""}, {"primitives" : [{"attributes" : {"POSITION" : 9, "TEXCOORD_0" : 10}, "indices" : 8, "mode" : 4}], "name" : ""}, {"primitives" : [{"attributes" : {"POSITION" : 12, "TEXCOORD_0" : 13}, "indices" : 11, "mode" : 4}], "name" : ""}, {"primitives" : [{"attributes" : {"POSITION" : 15, "TEXCOORD_0" : 16}, "indices" : 14, "mode" : 4}], "name" : ""}, {"primitives" : [{"attributes" : {"POSITION" : 18, "TEXCOORD_0" : 19}, "indices" : 17, "mode" : 4}], "name" : ""}, {"primitives" : [{"attributes" : {"POSITION" : 21}, "indices" : 20, "mode" : 4}], "name" : ""}, {"primitives" : [{"attributes" : {"POSITION" : 23, "TEXCOORD_0" : 24}, "indices" : 22, "mode" : 4}], "name" : ""}, {"primitives" : [{"attributes" : {"POSITION" : 26}, "indices" : 25, "mode" : 4}], "name" : ""}], "nodes" : [{"mesh" : 0, "name" : "PolyMesh_2"}, {"mesh" : 1, "name" : "PolyMesh_4"}, {"mesh" : 2, "name" : "PolyMesh_1"}, {"mesh" : 3, "name" : "PolyMesh_1_1"}, {"mesh" : 4, "name" : "PolyMesh_5"}, {"mesh" : 5, "name" : "PolyMesh_5_1"}, {"mesh" : 6, "name" : "PolyMesh_5_2"}, {"mesh" : 7, "name" : "PolyMesh_5_3"}, {"mesh" : 8, "name" : "PolyMesh_3"}, {"mesh" : 9, "name" : "PolyMesh_2_1"}, {"mesh" : 10, "name" : "PolyMesh_3_1"}], "scene" : 0, "scenes" : [{"nodes" : [0, 1, 2, 3, 4, 5, 6, 7, 8, 9, 10]}]}