{"accessors" : [{"bufferView" : 0, "byteOffset" : 0, "componentType" : 5123, "count" : 32844, "type" : "SCALAR", "max" : [7069], "min" : [0]}, {"bufferView" : 1, "byteOffset" : 0, "componentType" : 5126, "count" : 7070, "type" : "VEC3", "max" : [185, 83.53800201416016, 74.04199981689453], "min" : [0, 0, 0], "name" : "POSITION"}, {"bufferView" : 1, "byteOffset" : 12, "componentType" : 5126, "count" : 7070, "type" : "VEC2", "max" : [2.958509922027588, 5.424489974975586], "min" : [-3.149199962615967, -0.40119004249572754], "name" : "TEXCOORD_0"}, {"bufferView" : 1, "byteOffset" : 20, "componentType" : 5126, "count" : 7070, "type" : "VEC3", "max" : [1.0000044107437134, 1.0000044107437134, 1.0000044107437134], "min" : [-1.0000044107437134, -1.0000044107437134, -1.0000044107437134], "name" : "NORMAL"}], "asset" : {"generator" : "Aspose.3D 24.9.1", "version" : "2.0"}, "buffers" : [{"uri" : "data:application/octet-stream;base64,", "byteLength" : 291936}], "bufferViews" : [{"buffer" : 0, "byteOffset" : 0, "byteLength" : 65688, "target" : 34963}, {"buffer" : 0, "byteOffset" : 65692, "byteLength" : 226240, "byteStride" : 32, "target" : 34962}], "meshes" : [{"primitives" : [{"attributes" : {"POSITION" : 1, "TEXCOORD_0" : 2, "NORMAL" : 3}, "indices" : 0, "mode" : 4}], "name" : ""}], "nodes" : [{"mesh" : 0, "name" : "sofa2_1_1"}], "scene" : 0, "scenes" : [{"nodes" : [0]}]}