{"extensionsUsed" : ["KHR_materials_pbrSpecularGlossiness"], "extensionsRequired" : ["KHR_materials_pbrSpecularGlossiness"], "accessors" : [{"bufferView" : 0, "byteOffset" : 0, "componentType" : 5123, "count" : 612, "type" : "SCALAR", "max" : [611], "min" : [0]}, {"bufferView" : 1, "byteOffset" : 0, "componentType" : 5126, "count" : 612, "type" : "VEC3", "max" : [87.57073974609375, 29.686180114746094, -69.50009155273438], "min" : [-80.42926025390625, 8.686180114746094, -136.50009155273438], "name" : "POSITION"}, {"bufferView" : 1, "byteOffset" : 12, "componentType" : 5126, "count" : 612, "type" : "VEC3", "max" : [0.916398286819458, 0.9442979693412781, 0.9980528950691223], "min" : [-0.9163945913314819, -0.9443206191062927, -0.9980434775352478], "name" : "NORMAL"}, {"bufferView" : 1, "byteOffset" : 24, "componentType" : 5126, "count" : 612, "type" : "VEC2", "max" : [1, 1.8605899810791016], "min" : [0, 1], "name" : "TEXCOORD_0"}, {"bufferView" : 0, "byteOffset" : 1224, "componentType" : 5123, "count" : 72, "type" : "SCALAR", "max" : [71], "min" : [0]}, {"bufferView" : 2, "byteOffset" : 0, "componentType" : 5126, "count" : 72, "type" : "VEC3", "max" : [81.67807006835938, 8.743280410766602, -127.58583068847656], "min" : [76.27806854248047, 7.626279830932617, -132.98582458496094], "name" : "POSITION"}, {"bufferView" : 2, "byteOffset" : 12, "componentType" : 5126, "count" : 72, "type" : "VEC3", "max" : [1.0000044107437134, 1.0000044107437134, 1.0000044107437134], "min" : [-1.0000044107437134, -1.0000044107437134, -1.0000044107437134], "name" : "NORMAL"}, {"bufferView" : 0, "byteOffset" : 1368, "componentType" : 5123, "count" : 72, "type" : "SCALAR", "max" : [71], "min" : [0]}, {"bufferView" : 3, "byteOffset" : 0, "componentType" : 5126, "count" : 72, "type" : "VEC3", "max" : [-69.23828887939453, 8.743280410766602, -127.6140365600586], "min" : [-74.63829040527344, 7.626279830932617, -133.0140380859375], "name" : "POSITION"}, {"bufferView" : 3, "byteOffset" : 12, "componentType" : 5126, "count" : 72, "type" : "VEC3", "max" : [1.0000044107437134, 1.0000044107437134, 1.0000044107437134], "min" : [-1.0000044107437134, -1.0000044107437134, -1.0000044107437134], "name" : "NORMAL"}, {"bufferView" : 0, "byteOffset" : 1512, "componentType" : 5123, "count" : 72, "type" : "SCALAR", "max" : [71], "min" : [0]}, {"bufferView" : 4, "byteOffset" : 0, "componentType" : 5126, "count" : 72, "type" : "VEC3", "max" : [-69.23828887939453, 8.743280410766602, -73.57671356201172], "min" : [-74.63829040527344, 7.626279830932617, -78.9767074584961], "name" : "POSITION"}, {"bufferView" : 4, "byteOffset" : 12, "componentType" : 5126, "count" : 72, "type" : "VEC3", "max" : [1.0000044107437134, 1.0000044107437134, 1.0000044107437134], "min" : [-1.0000044107437134, -1.0000044107437134, -1.0000044107437134], "name" : "NORMAL"}, {"bufferView" : 0, "byteOffset" : 1656, "componentType" : 5123, "count" : 72, "type" : "SCALAR", "max" : [71], "min" : [0]}, {"bufferView" : 5, "byteOffset" : 0, "componentType" : 5126, "count" : 72, "type" : "VEC3", "max" : [81.67807006835938, 8.743280410766602, -73.54850006103516], "min" : [76.27806854248047, 7.626279830932617, -78.94850158691406], "name" : "POSITION"}, {"bufferView" : 5, "byteOffset" : 12, "componentType" : 5126, "count" : 72, "type" : "VEC3", "max" : [1.0000044107437134, 1.0000044107437134, 1.0000044107437134], "min" : [-1.0000044107437134, -1.0000044107437134, -1.0000044107437134], "name" : "NORMAL"}, {"bufferView" : 0, "byteOffset" : 1800, "componentType" : 5123, "count" : 612, "type" : "SCALAR", "max" : [611], "min" : [0]}, {"bufferView" : 6, "byteOffset" : 0, "componentType" : 5126, "count" : 612, "type" : "VEC3", "max" : [94.57100677490234, 45.27268981933594, -54.71363830566406], "min" : [-87.42899322509766, 27.272689819335938, -115.71363830566406], "name" : "POSITION"}, {"bufferView" : 6, "byteOffset" : 12, "componentType" : 5126, "count" : 612, "type" : "VEC3", "max" : [0.8929380178451538, 0.9508620500564575, 0.9981035590171814], "min" : [-0.8929341435432434, -0.9508801698684692, -0.9980948567390442], "name" : "NORMAL"}, {"bufferView" : 6, "byteOffset" : 24, "componentType" : 5126, "count" : 612, "type" : "VEC2", "max" : [1, 1.8605899810791016], "min" : [0, 1], "name" : "TEXCOORD_0"}, {"bufferView" : 0, "byteOffset" : 3024, "componentType" : 5123, "count" : 612, "type" : "SCALAR", "max" : [611], "min" : [0]}, {"bufferView" : 7, "byteOffset" : 0, "componentType" : 5126, "count" : 612, "type" : "VEC3", "max" : [94.57100677490234, 100.72236633300781, -115.71647644042969], "min" : [-87.42899322509766, 37.97188949584961, -148.06878662109375], "name" : "POSITION"}, {"bufferView" : 7, "byteOffset" : 12, "componentType" : 5126, "count" : 612, "type" : "VEC3", "max" : [0.8887283205986023, 0.9992327690124512, 0.995846152305603], "min" : [-0.896990180015564, -0.9992322325706482, -0.9958464503288269], "name" : "NORMAL"}, {"bufferView" : 7, "byteOffset" : 24, "componentType" : 5126, "count" : 612, "type" : "VEC2", "max" : [1, 1.8605899810791016], "min" : [0, 1], "name" : "TEXCOORD_0"}, {"bufferView" : 0, "byteOffset" : 4248, "componentType" : 5123, "count" : 306, "type" : "SCALAR", "max" : [305], "min" : [0]}, {"bufferView" : 8, "byteOffset" : 0, "componentType" : 5126, "count" : 306, "type" : "VEC3", "max" : [94.57100677490234, 43.184810638427734, -113.61170959472656], "min" : [-87.42899322509766, 27.27968978881836, -131.74136352539062], "name" : "POSITION"}, {"bufferView" : 8, "byteOffset" : 12, "componentType" : 5126, "count" : 306, "type" : "VEC3", "max" : [0.8018675446510315, 0.9923850893974304, 0.9373511075973511], "min" : [-0.9393751621246338, -0.9750188589096069, -0.9894241690635681], "name" : "NORMAL"}, {"bufferView" : 8, "byteOffset" : 24, "componentType" : 5126, "count" : 306, "type" : "VEC2", "max" : [1, 2], "min" : [0, 1.1394100189208984], "name" : "TEXCOORD_0"}], "asset" : {"generator" : "Aspose.3D 24.9.1", "version" : "2.0"}, "buffers" : [{"uri" : "data:application/octet-stream;base64,", "byteLength" : 80352}], "bufferViews" : [{"buffer" : 0, "byteOffset" : 0, "byteLength" : 4860, "target" : 34963}, {"buffer" : 0, "byteOffset" : 4864, "byteLength" : 19584, "byteStride" : 32, "target" : 34962}, {"buffer" : 0, "byteOffset" : 24452, "byteLength" : 1728, "byteStride" : 24, "target" : 34962}, {"buffer" : 0, "byteOffset" : 26184, "byteLength" : 1728, "byteStride" : 24, "target" : 34962}, {"buffer" : 0, "byteOffset" : 27916, "byteLength" : 1728, "byteStride" : 24, "target" : 34962}, {"buffer" : 0, "byteOffset" : 29648, "byteLength" : 1728, "byteStride" : 24, "target" : 34962}, {"buffer" : 0, "byteOffset" : 31380, "byteLength" : 19584, "byteStride" : 32, "target" : 34962}, {"buffer" : 0, "byteOffset" : 50968, "byteLength" : 19584, "byteStride" : 32, "target" : 34962}, {"buffer" : 0, "byteOffset" : 70556, "byteLength" : 9792, "byteStride" : 32, "target" : 34962}], "materials" : [{"name" : "", "extensions" : {"KHR_materials_pbrSpecularGlossiness" : {"diffuseFactor" : [0.2196078598499298, 0.2196078598499298, 0.2196078598499298, 1], "specularFactor" : [0, 0, 0], "glossinessFactor" : 1}}, "pbrMetallicRoughness" : {"baseColorFactor" : [0, 0, 0, 1], "metallicFactor" : 0, "roughnessFactor" : 0}, "emissiveFactor" : [0, 0, 0], "alphaMode" : "OPAQUE", "doubleSided" : true}, {"name" : "", "extensions" : {"KHR_materials_pbrSpecularGlossiness" : {"diffuseFactor" : [0.2196078598499298, 0.2196078598499298, 0.2196078598499298, 1], "specularFactor" : [0, 0, 0], "glossinessFactor" : 1}}, "pbrMetallicRoughness" : {"baseColorFactor" : [0, 0, 0, 1], "metallicFactor" : 0, "roughnessFactor" : 0}, "emissiveFactor" : [0, 0, 0], "alphaMode" : "OPAQUE", "doubleSided" : true}, {"name" : "", "extensions" : {"KHR_materials_pbrSpecularGlossiness" : {"diffuseFactor" : [0.2196078598499298, 0.2196078598499298, 0.2196078598499298, 1], "specularFactor" : [0, 0, 0], "glossinessFactor" : 1}}, "pbrMetallicRoughness" : {"baseColorFactor" : [0, 0, 0, 1], "metallicFactor" : 0, "roughnessFactor" : 0}, "emissiveFactor" : [0, 0, 0], "alphaMode" : "OPAQUE", "doubleSided" : true}, {"name" : "", "extensions" : {"KHR_materials_pbrSpecularGlossiness" : {"diffuseFactor" : [0.2196078598499298, 0.2196078598499298, 0.2196078598499298, 1], "specularFactor" : [0, 0, 0], "glossinessFactor" : 1}}, "pbrMetallicRoughness" : {"baseColorFactor" : [0, 0, 0, 1], "metallicFactor" : 0, "roughnessFactor" : 0}, "emissiveFactor" : [0, 0, 0], "alphaMode" : "OPAQUE", "doubleSided" : true}, {"name" : "", "extensions" : {"KHR_materials_pbrSpecularGlossiness" : {"diffuseFactor" : [0.2196078598499298, 0.2196078598499298, 0.2196078598499298, 1], "specularFactor" : [0, 0, 0], "glossinessFactor" : 1}}, "pbrMetallicRoughness" : {"baseColorFactor" : [0, 0, 0, 1], "metallicFactor" : 0, "roughnessFactor" : 0}, "emissiveFactor" : [0, 0, 0], "alphaMode" : "OPAQUE", "doubleSided" : true}, {"name" : "", "extensions" : {"KHR_materials_pbrSpecularGlossiness" : {"diffuseFactor" : [0.2196078598499298, 0.2196078598499298, 0.2196078598499298, 1], "specularFactor" : [0, 0, 0], "glossinessFactor" : 1}}, "pbrMetallicRoughness" : {"baseColorFactor" : [0, 0, 0, 1], "metallicFactor" : 0, "roughnessFactor" : 0}, "emissiveFactor" : [0, 0, 0], "alphaMode" : "OPAQUE", "doubleSided" : true}, {"name" : "", "extensions" : {"KHR_materials_pbrSpecularGlossiness" : {"diffuseFactor" : [0.2196078598499298, 0.2196078598499298, 0.2196078598499298, 1], "specularFactor" : [0, 0, 0], "glossinessFactor" : 1}}, "pbrMetallicRoughness" : {"baseColorFactor" : [0, 0, 0, 1], "metallicFactor" : 0, "roughnessFactor" : 0}, "emissiveFactor" : [0, 0, 0], "alphaMode" : "OPAQUE", "doubleSided" : true}, {"name" : "", "extensions" : {"KHR_materials_pbrSpecularGlossiness" : {"diffuseFactor" : [0.2196078598499298, 0.2196078598499298, 0.2196078598499298, 1], "specularFactor" : [0, 0, 0], "glossinessFactor" : 1}}, "pbrMetallicRoughness" : {"baseColorFactor" : [0, 0, 0, 1], "metallicFactor" : 0, "roughnessFactor" : 0}, "emissiveFactor" : [0, 0, 0], "alphaMode" : "OPAQUE", "doubleSided" : true}], "meshes" : [{"primitives" : [{"attributes" : {"POSITION" : 1, "NORMAL" : 2, "TEXCOORD_0" : 3}, "indices" : 0, "material" : 0, "mode" : 4}, {"attributes" : {"POSITION" : 5, "NORMAL" : 6}, "indices" : 4, "material" : 1, "mode" : 4}, {"attributes" : {"POSITION" : 8, "NORMAL" : 9}, "indices" : 7, "material" : 2, "mode" : 4}, {"attributes" : {"POSITION" : 11, "NORMAL" : 12}, "indices" : 10, "material" : 3, "mode" : 4}, {"attributes" : {"POSITION" : 14, "NORMAL" : 15}, "indices" : 13, "material" : 4, "mode" : 4}, {"attributes" : {"POSITION" : 17, "NORMAL" : 18, "TEXCOORD_0" : 19}, "indices" : 16, "material" : 5, "mode" : 4}, {"attributes" : {"POSITION" : 21, "NORMAL" : 22, "TEXCOORD_0" : 23}, "indices" : 20, "material" : 6, "mode" : 4}, {"attributes" : {"POSITION" : 25, "NORMAL" : 26, "TEXCOORD_0" : 27}, "indices" : 24, "material" : 7, "mode" : 4}]}], "nodes" : [{"mesh" : 0, "name" : "Asset3DLoader.sceneRoot"}], "scene" : 0, "scenes" : [{"nodes" : [0]}]}