{"accessors" : [{"bufferView" : 0, "byteOffset" : 0, "componentType" : 5123, "count" : 1536, "type" : "SCALAR", "max" : [269], "min" : [0]}, {"bufferView" : 1, "byteOffset" : 0, "componentType" : 5126, "count" : 270, "type" : "VEC3", "max" : [14.17113971710205, 3.823621988296509, -6.248390197753906], "min" : [10.729069709777832, -7.289478778839111, -10.163320541381836], "name" : "POSITION"}, {"bufferView" : 1, "byteOffset" : 12, "componentType" : 5126, "count" : 270, "type" : "VEC3", "max" : [0.9891036152839661, 0.9993430376052856, 0.9454963207244873], "min" : [-0.9874776601791382, -0.9988521933555603, -0.9485936164855957], "name" : "NORMAL"}, {"bufferView" : 0, "byteOffset" : 3072, "componentType" : 5123, "count" : 1536, "type" : "SCALAR", "max" : [272], "min" : [0]}, {"bufferView" : 2, "byteOffset" : 0, "componentType" : 5126, "count" : 273, "type" : "VEC3", "max" : [-8.325249671936035, 3.704828977584839, 5.791598796844482], "min" : [-11.767319679260254, -7.408270835876465, 1.8766599893569946], "name" : "POSITION"}, {"bufferView" : 2, "byteOffset" : 12, "componentType" : 5126, "count" : 273, "type" : "VEC3", "max" : [0.9874956011772156, 0.9993443489074707, 0.9485947489738464], "min" : [-0.9891170859336853, -0.998852550983429, -0.9454631209373474], "name" : "NORMAL"}, {"bufferView" : 0, "byteOffset" : 6144, "componentType" : 5123, "count" : 1536, "type" : "SCALAR", "max" : [269], "min" : [0]}, {"bufferView" : 3, "byteOffset" : 0, "componentType" : 5126, "count" : 270, "type" : "VEC3", "max" : [-8.140089988708496, 3.8221209049224854, -6.564690113067627], "min" : [-11.879420280456543, -7.290977954864502, -10.209341049194336], "name" : "POSITION"}, {"bufferView" : 3, "byteOffset" : 12, "componentType" : 5126, "count" : 270, "type" : "VEC3", "max" : [0.9658219814300537, 0.9993432760238647, 0.9742174744606018], "min" : [-0.9683638215065002, -0.9988532066345215, -0.9764387607574463], "name" : "NORMAL"}, {"bufferView" : 0, "byteOffset" : 9216, "componentType" : 5123, "count" : 1536, "type" : "SCALAR", "max" : [269], "min" : [0]}, {"bufferView" : 4, "byteOffset" : 0, "componentType" : 5126, "count" : 270, "type" : "VEC3", "max" : [13.975830078125, 3.704828977584839, 5.858658790588379], "min" : [10.236490249633789, -7.408270835876465, 2.214010000228882], "name" : "POSITION"}, {"bufferView" : 4, "byteOffset" : 12, "componentType" : 5126, "count" : 270, "type" : "VEC3", "max" : [0.9683345556259155, 0.9993435740470886, 0.9764631986618042], "min" : [-0.9658194184303284, -0.9988546371459961, -0.9742418527603149], "name" : "NORMAL"}, {"bufferView" : 0, "byteOffset" : 12288, "componentType" : 5123, "count" : 72, "type" : "SCALAR", "max" : [29], "min" : [0]}, {"bufferView" : 5, "byteOffset" : 0, "componentType" : 5126, "count" : 30, "type" : "VEC3", "max" : [14.17311954498291, 3.9139020442962646, 5.995269775390625], "min" : [-11.980979919433594, 3.3208789825439453, -10.140548706054688], "name" : "POSITION"}, {"bufferView" : 5, "byteOffset" : 12, "componentType" : 5126, "count" : 30, "type" : "VEC3", "max" : [1.0000044107437134, 1.0000044107437134, 1.0000044107437134], "min" : [-1.0000044107437134, -1.0000044107437134, -1.0000044107437134], "name" : "NORMAL"}], "asset" : {"generator" : "Aspose.3D 24.9.1", "version" : "2.0"}, "buffers" : [{"uri" : "data:application/octet-stream;base64,", "byteLength" : 39168}], "bufferViews" : [{"buffer" : 0, "byteOffset" : 0, "byteLength" : 12432, "target" : 34963}, {"buffer" : 0, "byteOffset" : 12436, "byteLength" : 6480, "byteStride" : 24, "target" : 34962}, {"buffer" : 0, "byteOffset" : 18920, "byteLength" : 6552, "byteStride" : 24, "target" : 34962}, {"buffer" : 0, "byteOffset" : 25476, "byteLength" : 6480, "byteStride" : 24, "target" : 34962}, {"buffer" : 0, "byteOffset" : 31960, "byteLength" : 6480, "byteStride" : 24, "target" : 34962}, {"buffer" : 0, "byteOffset" : 38444, "byteLength" : 720, "byteStride" : 24, "target" : 34962}], "meshes" : [{"primitives" : [{"attributes" : {"POSITION" : 1, "NORMAL" : 2}, "indices" : 0, "mode" : 4}], "name" : ""}, {"primitives" : [{"attributes" : {"POSITION" : 4, "NORMAL" : 5}, "indices" : 3, "mode" : 4}], "name" : ""}, {"primitives" : [{"attributes" : {"POSITION" : 7, "NORMAL" : 8}, "indices" : 6, "mode" : 4}], "name" : ""}, {"primitives" : [{"attributes" : {"POSITION" : 10, "NORMAL" : 11}, "indices" : 9, "mode" : 4}], "name" : ""}, {"primitives" : [{"attributes" : {"POSITION" : 13, "NORMAL" : 14}, "indices" : 12, "mode" : 4}], "name" : ""}], "nodes" : [{"mesh" : 0, "name" : "Tube_2"}, {"mesh" : 1, "name" : "Tube_2-mirror"}, {"mesh" : 2, "name" : "Tube_2-mirror-mirror"}, {"mesh" : 3, "name" : "Tube_2-mirror_1"}, {"mesh" : 4, "name" : "Cube_1"}], "scene" : 0, "scenes" : [{"nodes" : [0, 1, 2, 3, 4]}]}